<?xml version="1.0" standalone="no"?>
<!DOCTYPE svg PUBLIC "-//W3C//DTD SVG 20010904//EN"
 "http://www.w3.org/TR/2001/REC-SVG-20010904/DTD/svg10.dtd">
<svg version="1.0" xmlns="http://www.w3.org/2000/svg"
 width="500.000000pt" height="500.000000pt" viewBox="0 0 500.000000 500.000000"
 preserveAspectRatio="xMidYMid meet">
<metadata>
Created by potrace 1.14, written by Peter Selinger 2001-2017
</metadata>
<g transform="translate(0.000000,500.000000) scale(0.100000,-0.100000)"
fill="#000000" stroke="none">
<path d="M2350 4851 c-80 -21 -197 -52 -260 -69 -63 -17 -203 -54 -310 -82
-107 -29 -244 -65 -305 -81 -60 -16 -117 -31 -125 -33 -17 -4 -504 -134 -650
-173 -52 -14 -177 -47 -278 -73 -204 -54 -249 -76 -283 -143 -18 -33 -22 -60
-23 -127 0 -83 10 -279 19 -350 2 -19 7 -60 9 -91 11 -113 46 -318 82 -474 14
-60 27 -118 29 -128 2 -9 6 -21 9 -25 3 -5 8 -23 11 -41 9 -52 111 -351 166
-488 49 -123 191 -419 245 -513 207 -361 385 -609 649 -905 95 -107 309 -322
420 -421 209 -188 557 -454 665 -508 53 -27 117 -28 170 -2 52 24 259 174 429
309 278 222 564 502 796 782 323 389 604 865 780 1320 114 296 211 655 250
930 3 22 8 51 10 65 2 14 7 52 11 85 3 33 8 68 10 78 7 37 18 265 18 367 0 96
-2 109 -26 146 -27 42 -67 71 -123 92 -30 11 -517 140 -557 147 -11 3 -35 9
-52 14 -17 6 -66 19 -108 31 -43 11 -111 29 -150 39 -110 30 -454 120 -533
141 -66 17 -157 42 -285 76 -30 9 -89 24 -130 35 -41 11 -82 21 -90 24 -70 19
-291 75 -315 79 -18 3 -90 -11 -175 -33z"/>
</g>
</svg>
